<svg width="800" height="800" viewBox="0 -15.5 1055 1055" class="icon" xmlns="http://www.w3.org/2000/svg">
  <path d="M705.639 559.64v-52.883h111.674v-44.074l-576.003-18.62v68.572h119.51v54.857H241.31v98.932h576.003V559.64zM330.79 251.733l-13.071 62.694h428.42l-20.908-52.256z" fill="#C0EAFF"/>
  <path d="M275.901 461.131a15.674 15.674 0 0 1-15.219-19.497l44.31-175.873c4.67-16.16 21.645-27.084 41.44-27.084H708.93c19.796 0 36.77 10.924 41.3 26.55l15.862 62.946a15.674 15.674 0 1 1-30.407 7.648l-15.72-62.412c-.377-.564-4.405-3.385-11.05-3.385H346.432c-6.645 0-10.658 2.837-11.222 4.012l-44.12 175.262a15.69 15.69 0 0 1-15.189 11.833zm503.545 0c-7.006 0-13.386-4.733-15.188-11.849l-14.921-59.261a15.674 15.674 0 1 1 30.406-7.65l14.922 59.263a15.674 15.674 0 0 1-15.22 19.497zM334.959 785.34c-36.252 0-65.75-29.357-65.75-65.453V674.59a15.674 15.674 0 0 1 31.347 0v45.296c0 18.808 15.423 34.106 34.403 34.106 18.965 0 34.388-15.298 34.388-34.106V674.59a15.674 15.674 0 0 1 31.347 0v45.296c.016 36.096-29.482 65.453-65.735 65.453zm385.429 0c-36.253 0-65.75-29.357-65.75-65.453V674.59a15.674 15.674 0 0 1 31.346 0v45.296c0 18.808 15.423 34.106 34.404 34.106s34.403-15.298 34.403-34.106V674.59a15.674 15.674 0 0 1 31.347 0v45.296c0 36.096-29.497 65.453-65.75 65.453z" fill="#1F87DD"/>
  <path d="M800.824 462.668v190.26H254.538v-190.26h546.286m7.367-31.348H247.156c-13.244 0-23.965 10.737-23.965 23.965v228.99h608.98v-228.99a23.98 23.98 0 0 0-23.98-23.965z" fill="#1F87DD"/>
  <path d="M815.777 621.41H535.644a15.674 15.674 0 0 1 0-31.348h280.133a15.674 15.674 0 0 1 0 31.347zm-327.264 0h-6.363a15.674 15.674 0 0 1 0-31.348h6.363a15.674 15.674 0 0 1 0 31.347zm-72.568 0H246.592a15.674 15.674 0 0 1 0-31.348h169.353a15.674 15.674 0 0 1 0 31.347zM735.56 333.376H311.527a15.674 15.674 0 0 1 0-31.347H735.56a15.674 15.674 0 0 1 0 31.347zM422.324 413.06a15.674 15.674 0 0 1-9.467-28.18l45.798-34.639a15.674 15.674 0 0 1 18.902 25.015l-45.798 34.639a15.61 15.61 0 0 1-9.435 3.166zM559.938 413.06a15.674 15.674 0 0 1-9.467-28.18l45.798-34.639a15.674 15.674 0 1 1 18.902 25.015l-45.798 34.639a15.61 15.61 0 0 1-9.435 3.166zM340.821 513.607v28.447h-86.283v-28.447h86.283m9.687-31.348H223.19v91.142h127.317c11.959 0 21.66-9.702 21.66-21.66v-47.82c0-11.96-9.701-21.662-21.66-21.662zM800.824 513.607v28.447h-86.283v-28.447h86.283m31.347-31.348H704.855c-11.959 0-21.66 9.702-21.66 21.661v47.82c0 11.96 9.701 21.661 21.66 21.661h127.316V482.26z" fill="#1F87DD"/>
</svg>
